
      <svg data-logo="logo" xmlns="http://www.w3.org/2000/svg" viewBox="0 0 123 43">
        <g id="logogram" transform="translate(0, 1) rotate(0) "><path d="M0.301758 30.08L0.301761 10.08L10.3018 15.6355V24.5799L18.3018 29.08L26.3018 24.5799V15.6355L36.3019 10.08V30.08L18.3018 40.08L0.301758 30.08Z" fill="#192657"/><path fill-rule="evenodd" clip-rule="evenodd" d="M5.30177 12.8578L0.301758 10.08L18.3018 0.0799561L36.3019 10.08L31.3018 12.8578V27.58L18.3018 35.08L5.30176 27.58L5.30177 12.8578ZM30.7602 13.1587L26.3018 15.6355V15.58L18.3018 11.0799L10.3018 15.58V15.6355L5.84343 13.1587V27.2723L18.3018 34.4598L30.7602 27.2723V13.1587Z" fill="url(#paint0_linear_5558_2243)"/></g>
        <g id="logotype" transform="translate(43, 1.5)"><path fill="#192657" d="M8.31 7.54L13.52 7.54L13.52 33L8.31 33L8.31 7.54ZM20.87 21.94L20.87 21.94L20.87 33L15.74 33L15.74 13.89L20.58 13.89L20.66 18.66L20.35 18.66Q21.11 16.27 22.63 14.96Q24.16 13.65 26.59 13.65L26.59 13.65Q28.57 13.65 30.04 14.52Q31.51 15.38 32.33 17.00Q33.15 18.61 33.15 20.85L33.15 20.85L33.15 33L28.03 33L28.03 21.74Q28.03 19.96 27.11 18.95Q26.20 17.94 24.57 17.94L24.57 17.94Q23.50 17.94 22.65 18.41Q21.81 18.88 21.34 19.77Q20.87 20.66 20.87 21.94ZM43.39 23.48L39.90 27.41L39.90 21.24L40.67 21.24L46.93 13.89L52.86 13.89L44.60 23.48L43.39 23.48ZM40.38 33L35.25 33L35.25 7.54L40.38 7.54L40.38 33ZM53.22 33L47.18 33L41.44 24.63L44.88 20.99L53.22 33ZM53.28 7.54L58.41 7.54L58.41 33L53.28 33L53.28 7.54ZM60.35 39.77L60.35 39.77L61.53 35.91L62.17 36.06Q63.19 36.33 63.99 36.21Q64.80 36.09 65.29 35.56Q65.77 35.03 65.87 34.08L65.87 34.08L66.01 33.05L58.83 13.89L64.29 13.89L67.50 23.81Q68.08 25.69 68.45 27.57Q68.81 29.45 69.29 31.50L69.29 31.50L68.10 31.50Q68.56 29.45 69.02 27.56Q69.48 25.67 70.10 23.81L70.10 23.81L73.45 13.89L78.83 13.89L70.71 35.26Q70.13 36.79 69.22 37.92Q68.32 39.05 66.97 39.67Q65.62 40.28 63.70 40.28L63.70 40.28Q62.68 40.28 61.79 40.14Q60.90 39.99 60.35 39.77Z"/></g>
        <defs xmlns="http://www.w3.org/2000/svg">
<linearGradient id="paint0_linear_5558_2243" x1="5.30176" y1="7.85773" x2="32.3018" y2="7.85774" gradientUnits="userSpaceOnUse">
<stop stop-color="#64C2DB"/>
<stop offset="0.307292" stop-color="#7476ED"/>
<stop offset="0.604167" stop-color="#C994DF"/>
<stop offset="1" stop-color="#E56F8C"/>
</linearGradient>
</defs>
      </svg>
    