<svg data-logo="logo" xmlns="http://www.w3.org/2000/svg" viewBox="0 0 214 43">
        <g style="opacity: 1; transition: 0.2s;" id="logogram" transform="translate(0, 1) rotate(0)"><path d="M0.301758 30.08L0.301761 10.08L10.3018 15.6355V24.5799L18.3018 29.08L26.3018 24.5799V15.6355L36.3019 10.08V30.08L18.3018 40.08L0.301758 30.08Z" fill="#192657"></path><path fill-rule="evenodd" clip-rule="evenodd" d="M5.30177 12.8578L0.301758 10.08L18.3018 0.0799561L36.3019 10.08L31.3018 12.8578V27.58L18.3018 35.08L5.30176 27.58L5.30177 12.8578ZM30.7602 13.1587L26.3018 15.6355V15.58L18.3018 11.0799L10.3018 15.58V15.6355L5.84343 13.1587V27.2723L18.3018 34.4598L30.7602 27.2723V13.1587Z" fill="url(#paint0_linear_5558_2243)"></path></g>
        <g style="opacity: 0.3; transition: 0.2s;" id="logotype" transform="translate(43, 8.5)"><path fill="#192657" d="M19.43 26.34L19.43 26.34Q16.05 26.34 13.37 24.80Q10.70 23.27 9.15 20.34Q7.61 17.42 7.61 13.29L7.61 13.29Q7.61 9.13 9.16 6.20Q10.72 3.27 13.40 1.73Q16.08 0.19 19.43 0.19L19.43 0.19Q21.60 0.19 23.47 0.80Q25.35 1.41 26.80 2.57Q28.25 3.73 29.17 5.42Q30.10 7.10 30.39 9.23L30.39 9.23L25.11 9.23Q24.94 8.19 24.45 7.38Q23.96 6.57 23.24 6.00Q22.51 5.42 21.57 5.12Q20.63 4.83 19.54 4.83L19.54 4.83Q17.55 4.83 16.05 5.82Q14.54 6.81 13.72 8.70Q12.90 10.58 12.90 13.29L12.90 13.29Q12.90 16.04 13.74 17.92Q14.58 19.80 16.07 20.75Q17.55 21.71 19.52 21.71L19.52 21.71Q20.61 21.71 21.54 21.41Q22.47 21.11 23.22 20.54Q23.96 19.97 24.45 19.15Q24.94 18.33 25.12 17.30L25.12 17.30L30.40 17.30Q30.20 19.06 29.35 20.69Q28.51 22.31 27.11 23.59Q25.70 24.87 23.77 25.61Q21.84 26.34 19.43 26.34ZM40.35 26.38L40.35 26.38Q37.48 26.38 35.38 25.14Q33.27 23.90 32.14 21.68Q31.00 19.47 31.00 16.53L31.00 16.53Q31.00 13.56 32.14 11.35Q33.27 9.13 35.38 7.89Q37.48 6.65 40.35 6.65L40.35 6.65Q43.24 6.65 45.33 7.89Q47.42 9.13 48.56 11.35Q49.70 13.56 49.70 16.53L49.70 16.53Q49.70 19.47 48.56 21.68Q47.42 23.90 45.33 25.14Q43.24 26.38 40.35 26.38ZM40.35 22.34L40.35 22.34Q41.72 22.34 42.64 21.58Q43.56 20.82 44.02 19.50Q44.48 18.17 44.48 16.52L44.48 16.52Q44.48 14.82 44.02 13.51Q43.56 12.19 42.64 11.44Q41.72 10.69 40.35 10.69L40.35 10.69Q38.98 10.69 38.07 11.44Q37.15 12.19 36.69 13.51Q36.23 14.82 36.23 16.52L36.23 16.52Q36.23 18.17 36.69 19.50Q37.15 20.82 38.07 21.58Q38.98 22.34 40.35 22.34ZM50.99 0.54L56.12 0.54L56.12 26L50.99 26L50.99 0.54ZM58.20 0.54L63.33 0.54L63.33 26L58.20 26L58.20 0.54ZM70.75 26.38L70.75 26.38Q68.93 26.38 67.49 25.74Q66.05 25.09 65.22 23.82Q64.39 22.55 64.39 20.65L64.39 20.65Q64.39 19.06 64.98 17.98Q65.57 16.91 66.58 16.26Q67.60 15.61 68.89 15.27Q70.18 14.93 71.60 14.79L71.60 14.79Q73.26 14.62 74.27 14.47Q75.29 14.33 75.76 14.01Q76.23 13.70 76.23 13.08L76.23 13.08L76.23 12.99Q76.23 12.17 75.89 11.61Q75.55 11.05 74.88 10.75Q74.21 10.45 73.24 10.45L73.24 10.45Q72.25 10.45 71.51 10.75Q70.78 11.05 70.32 11.54Q69.86 12.04 69.63 12.65L69.63 12.65L64.93 11.87Q65.43 10.21 66.58 9.05Q67.72 7.88 69.42 7.27Q71.12 6.65 73.24 6.65L73.24 6.65Q74.80 6.65 76.25 7.02Q77.70 7.39 78.85 8.16Q80.01 8.93 80.68 10.16Q81.36 11.39 81.36 13.13L81.36 13.13L81.36 26L76.50 26L76.50 23.35L76.33 23.35Q75.87 24.24 75.10 24.91Q74.33 25.59 73.25 25.98Q72.16 26.38 70.75 26.38ZM72.20 22.77L72.20 22.77Q73.41 22.77 74.33 22.29Q75.24 21.81 75.75 20.99Q76.27 20.17 76.27 19.16L76.27 19.16L76.27 17.10Q76.04 17.27 75.58 17.40Q75.12 17.54 74.56 17.64Q73.99 17.75 73.45 17.83Q72.90 17.92 72.47 17.97L72.47 17.97Q71.53 18.10 70.81 18.41Q70.10 18.72 69.70 19.22Q69.31 19.73 69.31 20.51L69.31 20.51Q69.31 21.25 69.69 21.75Q70.06 22.26 70.70 22.51Q71.34 22.77 72.20 22.77ZM94.16 26.32L94.16 26.32Q92.60 26.32 91.52 25.79Q90.45 25.27 89.77 24.49Q89.10 23.71 88.74 22.94L88.74 22.94L88.50 22.94L88.50 26L83.46 26L83.46 0.54L88.58 0.54L88.58 10.11L88.74 10.11Q89.10 9.35 89.76 8.55Q90.41 7.75 91.49 7.20Q92.57 6.65 94.19 6.65L94.19 6.65Q96.31 6.65 98.07 7.75Q99.83 8.84 100.88 11.03Q101.93 13.22 101.93 16.48L101.93 16.48Q101.93 19.66 100.91 21.86Q99.88 24.05 98.12 25.19Q96.36 26.32 94.16 26.32ZM92.58 22.21L92.58 22.21Q93.92 22.21 94.83 21.47Q95.75 20.74 96.22 19.44Q96.69 18.14 96.69 16.46L96.69 16.46Q96.69 14.79 96.22 13.51Q95.75 12.23 94.84 11.49Q93.93 10.76 92.58 10.76L92.58 10.76Q91.27 10.76 90.35 11.47Q89.42 12.17 88.94 13.45Q88.47 14.72 88.47 16.46L88.47 16.46Q88.47 18.19 88.95 19.48Q89.44 20.77 90.36 21.49Q91.29 22.21 92.58 22.21ZM111.79 26.38L111.79 26.38Q108.92 26.38 106.82 25.14Q104.72 23.90 103.58 21.68Q102.44 19.47 102.44 16.53L102.44 16.53Q102.44 13.56 103.58 11.35Q104.72 9.13 106.82 7.89Q108.92 6.65 111.79 6.65L111.79 6.65Q114.68 6.65 116.77 7.89Q118.87 9.13 120.00 11.35Q121.14 13.56 121.14 16.53L121.14 16.53Q121.14 19.47 120.00 21.68Q118.87 23.90 116.77 25.14Q114.68 26.38 111.79 26.38ZM111.79 22.34L111.79 22.34Q113.16 22.34 114.08 21.58Q115.00 20.82 115.47 19.50Q115.93 18.17 115.93 16.52L115.93 16.52Q115.93 14.82 115.47 13.51Q115.00 12.19 114.08 11.44Q113.16 10.69 111.79 10.69L111.79 10.69Q110.42 10.69 109.51 11.44Q108.60 12.19 108.13 13.51Q107.67 14.82 107.67 16.52L107.67 16.52Q107.67 18.17 108.13 19.50Q108.60 20.82 109.51 21.58Q110.42 22.34 111.79 22.34ZM127.77 26.38L127.77 26.38Q125.96 26.38 124.51 25.74Q123.07 25.09 122.24 23.82Q121.41 22.55 121.41 20.65L121.41 20.65Q121.41 19.06 122.00 17.98Q122.59 16.91 123.61 16.26Q124.62 15.61 125.91 15.27Q127.20 14.93 128.62 14.79L128.62 14.79Q130.28 14.62 131.30 14.47Q132.31 14.33 132.78 14.01Q133.25 13.70 133.25 13.08L133.25 13.08L133.25 12.99Q133.25 12.17 132.91 11.61Q132.57 11.05 131.90 10.75Q131.24 10.45 130.26 10.45L130.26 10.45Q129.27 10.45 128.54 10.75Q127.80 11.05 127.34 11.54Q126.88 12.04 126.66 12.65L126.66 12.65L121.96 11.87Q122.45 10.21 123.60 9.05Q124.74 7.88 126.44 7.27Q128.14 6.65 130.26 6.65L130.26 6.65Q131.82 6.65 133.27 7.02Q134.72 7.39 135.88 8.16Q137.03 8.93 137.71 10.16Q138.38 11.39 138.38 13.13L138.38 13.13L138.38 26L133.53 26L133.53 23.35L133.36 23.35Q132.89 24.24 132.13 24.91Q131.36 25.59 130.27 25.98Q129.19 26.38 127.77 26.38ZM129.22 22.77L129.22 22.77Q130.43 22.77 131.35 22.29Q132.26 21.81 132.78 20.99Q133.29 20.17 133.29 19.16L133.29 19.16L133.29 17.10Q133.07 17.27 132.60 17.40Q132.14 17.54 131.58 17.64Q131.01 17.75 130.47 17.83Q129.92 17.92 129.49 17.97L129.49 17.97Q128.55 18.10 127.84 18.41Q127.12 18.72 126.73 19.22Q126.33 19.73 126.33 20.51L126.33 20.51Q126.33 21.25 126.71 21.75Q127.08 22.26 127.73 22.51Q128.37 22.77 129.22 22.77ZM145.61 26L140.48 26L140.48 6.89L145.44 6.89L145.44 10.23L145.64 10.23Q146.17 8.45 147.41 7.54Q148.65 6.64 150.26 6.64L150.26 6.64Q150.65 6.64 151.10 6.68Q151.55 6.72 151.91 6.81L151.91 6.81L151.91 11.39Q151.57 11.27 150.92 11.20Q150.27 11.13 149.69 11.13L149.69 11.13Q148.53 11.13 147.59 11.64Q146.65 12.14 146.13 13.04Q145.61 13.93 145.61 15.13L145.61 15.13L145.61 26ZM159.45 26.32L159.45 26.32Q157.24 26.32 155.47 25.19Q153.71 24.05 152.68 21.86Q151.66 19.66 151.66 16.48L151.66 16.48Q151.66 13.22 152.71 11.03Q153.77 8.84 155.53 7.75Q157.30 6.65 159.41 6.65L159.41 6.65Q161.04 6.65 162.11 7.20Q163.19 7.75 163.86 8.55Q164.52 9.35 164.85 10.11L164.85 10.11L165.02 10.11L165.02 0.54L170.15 0.54L170.15 26L165.11 26L165.11 22.94L164.85 22.94Q164.51 23.71 163.83 24.49Q163.16 25.27 162.08 25.79Q161.00 26.32 159.45 26.32ZM161.02 22.21L161.02 22.21Q162.32 22.21 163.24 21.49Q164.17 20.77 164.64 19.48Q165.12 18.19 165.12 16.46L165.12 16.46Q165.12 14.72 164.65 13.45Q164.18 12.17 163.26 11.47Q162.34 10.76 161.02 10.76L161.02 10.76Q159.67 10.76 158.76 11.49Q157.84 12.23 157.38 13.51Q156.92 14.79 156.92 16.46L156.92 16.46Q156.92 18.14 157.39 19.44Q157.86 20.74 158.77 21.47Q159.69 22.21 161.02 22.21Z"></path></g>
        <defs xmlns="http://www.w3.org/2000/svg">
<linearGradient id="paint0_linear_5558_2243" x1="5.30176" y1="7.85773" x2="32.3018" y2="7.85774" gradientUnits="userSpaceOnUse">
<stop stop-color="#64C2DB"></stop>
<stop offset="0.307292" stop-color="#7476ED"></stop>
<stop offset="0.604167" stop-color="#C994DF"></stop>
<stop offset="1" stop-color="#E56F8C"></stop>
</linearGradient>
</defs>
      </svg>